<svg id="Design" xmlns="http://www.w3.org/2000/svg" viewBox="0 0 174.48 174.48"><defs><style>.cls-1{fill:#656565;}</style></defs><title>EMAIL</title><path class="cls-1" d="M-1.14-.76v176H175.62V-.76Zm37.31,44H138.31c4.6,0,5.41,2.34,1.8,5.2L94.87,84.31a11.56,11.56,0,0,1-7.64,2.2,11.62,11.62,0,0,1-7.62-2.2L34.37,48.47C30.76,45.61,31.58,43.27,36.17,43.27ZM150,122.82a8.41,8.41,0,0,1-8.36,8.39H32.8a8.41,8.41,0,0,1-8.36-8.39V61.24c0-4.6,3-6.1,6.67-3.32L80.56,95.45a11.91,11.91,0,0,0,13.36,0l49.45-37.53c3.68-2.78,6.67-1.28,6.67,3.32Z"/></svg>