<?xml version="1.0" encoding="utf-8"?>
<!-- Generator: Adobe Illustrator 23.0.1, SVG Export Plug-In . SVG Version: 6.00 Build 0)  -->
<svg version="1.1" id="Camada_1" xmlns="http://www.w3.org/2000/svg" xmlns:xlink="http://www.w3.org/1999/xlink" x="0px" y="0px"
	 viewBox="0 0 50.48 13.5" style="enable-background:new 0 0 50.48 13.5;" xml:space="preserve">
<style type="text/css">
	.st0{fill:#FFFFFF;}
	.st1{fill:#000F45;}
	.st2{opacity:0.1;}
	.st3{clip-path:url(#SVGID_2_);}
	.st4{fill:#8CC6F5;}
	.st5{fill:#1A237E;}
	.st6{fill:#4528A6;}
	.st7{fill:#4A1488;}
	.st8{fill:#5D2B60;}
	.st9{fill:#840E4F;}
	.st10{fill:#DBACAD;}
	.st11{fill:#E17373;}
	.st12{fill:#5C6BBC;}
	.st13{fill:#00FF00;}
	.st14{fill:#000F45;stroke:#000F45;stroke-width:0.4608;stroke-miterlimit:10;}
	.st15{fill:#2F2A29;}
	.st16{fill:none;}
	.st17{fill:#28211F;}
	.st18{fill:#1B163E;}
	.st19{fill:#211915;}
	.st20{clip-path:url(#SVGID_4_);}
	.st21{clip-path:url(#SVGID_6_);}
	.st22{clip-path:url(#SVGID_8_);}
	.st23{clip-path:url(#SVGID_12_);}
	.st24{clip-path:url(#SVGID_14_);}
</style>
<g>
	<path class="st0" d="M9.84,3.51C9.41,3.15,8.66,2.66,8.32,2.52C8.16,2.59,7.89,2.74,7.58,2.95c-0.29,0.2-0.57,0.41-0.76,0.58
		C7.5,3.84,8.16,4.31,8.32,4.42C8.61,4.21,9.25,3.78,9.84,3.51z"/>
	<path class="st0" d="M11.04,3.14c-0.15,0.05-0.5,0.19-0.95,0.4c0.34,0.32,0.63,0.66,0.86,1.01c0.57,0.86,0.81,1.79,0.71,2.69
		c-0.1,0.87-0.54,1.83-1.18,2.56c-0.32,0.37-0.69,0.67-1.06,0.87C9.19,10.8,9,10.9,8.78,10.95c0.14,0.01,0.27,0.02,0.39,0.02
		c0.32,0,0.62-0.05,0.94-0.15c1.63-0.49,2.3-2.04,2.51-2.69c0.4-1.23-0.06-2.53-0.51-3.41C11.68,3.9,11.16,3.27,11.04,3.14z"/>
	<path class="st0" d="M8.42,4.51c0.27,0.2,0.51,0.4,0.71,0.6c0.53,0.52,0.9,1.07,1.09,1.64c0.07,0.21,0.24,0.78,0.23,1.45
		c0,0.38-0.06,0.74-0.17,1.06c-0.13,0.39-0.35,0.73-0.64,1.01c-0.24,0.24-0.48,0.4-0.76,0.53c0.21-0.07,0.43-0.17,0.65-0.32
		c0.3-0.2,0.6-0.46,0.87-0.76c0.63-0.71,1.06-1.65,1.15-2.5c0.14-1.25-0.44-2.57-1.57-3.63C9.68,3.73,9.4,3.88,9.13,4.04
		C8.88,4.19,8.64,4.34,8.42,4.51z"/>
	<path class="st0" d="M6.45,10.19C4.94,8.96,4.91,7.16,4.92,6.81c0.04-1.5,0.92-2.59,1.66-3.25c-0.51-0.24-0.91-0.4-1.07-0.45
		C5.35,3.29,4.82,3.89,4.37,4.69C3.89,5.56,3.4,6.86,3.81,8.1l0.01,0.02c0.27,0.82,0.96,2.26,2.59,2.72
		c0.33,0.09,0.66,0.14,1.01,0.14c0,0,0,0,0,0c0.14,0,0.29-0.01,0.43-0.02c-0.59-0.12-1.04-0.48-1.37-0.75L6.45,10.19z"/>
	<path class="st0" d="M6.42,9.17c-0.1-0.32-0.16-0.68-0.15-1.06c0-0.65,0.16-1.21,0.23-1.42c0.18-0.56,0.54-1.1,1.05-1.61
		C7.74,4.89,7.96,4.7,8.21,4.51C7.98,4.35,7.74,4.19,7.49,4.04C7.25,3.9,6.98,3.76,6.7,3.62c-0.74,0.65-1.62,1.72-1.66,3.2
		C5.03,7.15,5.06,8.9,6.53,10.09l0.03,0.03c0.33,0.26,0.76,0.62,1.34,0.72c-0.33-0.16-0.62-0.36-0.87-0.63
		C6.75,9.92,6.54,9.57,6.42,9.17z"/>
	<path class="st0" d="M10.1,6.79L10.1,6.79c-0.26-0.78-0.86-1.51-1.78-2.2C7.43,5.26,6.86,5.98,6.61,6.73
		C6.45,7.23,6,8.95,7.11,10.12c0.25,0.26,0.52,0.46,0.84,0.61l0,0l0.02,0.01c0.01,0,0.06,0.02,0.09,0.04
		c0.02,0.01,0.04,0.02,0.04,0.02c0,0,0,0,0,0l0,0l0-0.05V7.39l0,0l0-0.16H7.97l0,0H7.1V6.76l0.93,0c0,0,0,0,0,0H8.1l0-0.16h0l0-1.23
		h0.46v1.26l0,0.13h0.13l0,0h0.89v0.46H8.69l0,0H8.56l0,0.13v3.39v0.02l0,0.02l0,0l0,0l0.04-0.02l0.05-0.02c0,0,0,0,0,0l0.04-0.02
		l0,0c0.33-0.13,0.58-0.3,0.85-0.56C10.76,9.01,10.22,7.15,10.1,6.79z"/>
	<path class="st0" d="M13.63,7.13c-0.01,0.02-0.03,0.03-0.05,0.03L13.4,7.22v0.09h0.89c0.07,0,0.14,0,0.21-0.01
		c0.07-0.01,0.13-0.02,0.2-0.04c0.06-0.02,0.12-0.04,0.18-0.07c0.05-0.03,0.1-0.06,0.14-0.11c0.04-0.04,0.07-0.09,0.1-0.15
		c0.02-0.06,0.03-0.13,0.03-0.2c0-0.07-0.01-0.13-0.04-0.19c-0.03-0.06-0.07-0.11-0.12-0.15c-0.05-0.04-0.11-0.07-0.19-0.1
		c-0.07-0.02-0.15-0.04-0.24-0.05c0.07-0.02,0.13-0.04,0.19-0.07c0.06-0.03,0.11-0.07,0.15-0.11c0.04-0.04,0.07-0.09,0.09-0.14
		c0.02-0.05,0.03-0.11,0.03-0.17c0-0.06-0.01-0.11-0.03-0.17c-0.02-0.05-0.06-0.1-0.12-0.14c-0.06-0.04-0.13-0.07-0.23-0.1
		c-0.1-0.02-0.22-0.04-0.38-0.04H13.4v0.09l0.18,0.05c0.02,0.01,0.04,0.02,0.05,0.03c0.01,0.02,0.02,0.03,0.02,0.06v1.55
		C13.65,7.1,13.64,7.12,13.63,7.13z M14.06,5.46h0.14c0.12,0,0.22,0.03,0.28,0.09c0.06,0.06,0.09,0.16,0.09,0.31
		c0,0.05-0.01,0.1-0.02,0.14c-0.01,0.04-0.04,0.08-0.07,0.11c-0.03,0.03-0.07,0.05-0.12,0.07c-0.05,0.02-0.11,0.02-0.19,0.02h-0.1
		V5.46z M14.06,6.35h0.18c0.08,0,0.14,0.01,0.2,0.02c0.06,0.02,0.1,0.04,0.14,0.07c0.04,0.03,0.06,0.08,0.08,0.13
		c0.02,0.05,0.03,0.12,0.03,0.2c0,0.13-0.03,0.23-0.09,0.29c-0.06,0.06-0.16,0.09-0.28,0.09h-0.25V6.35z"/>
	<path class="st0" d="M15.25,7.31h0.63V7.22l-0.25-0.07l0.21-0.55h0.64l0.22,0.55l-0.25,0.06v0.09h0.88V7.22L17.2,7.17
		c-0.02-0.01-0.03-0.02-0.05-0.03c-0.02-0.02-0.03-0.03-0.04-0.05L16.4,5.27h-0.18l-0.18,0.33l-0.58,1.48
		c-0.02,0.04-0.04,0.07-0.09,0.09l-0.13,0.05V7.31z M16.16,5.76l0.07,0.2l0.19,0.48h-0.52L16.16,5.76z"/>
	<path class="st0" d="M18.84,5.46c0.02,0,0.03,0,0.04,0.01c0.01,0.01,0.01,0.02,0.02,0.04l0.12,0.32h0.1V5.3h-1.83v0.53h0.1
		l0.12-0.32c0-0.01,0.01-0.03,0.02-0.04c0.01-0.01,0.02-0.01,0.04-0.01h0.43v1.62c0,0.02-0.01,0.04-0.02,0.06
		c-0.01,0.02-0.03,0.03-0.05,0.03l-0.21,0.05v0.09h0.98V7.22l-0.21-0.05c-0.02,0-0.03-0.01-0.05-0.03C18.41,7.12,18.4,7.1,18.4,7.08
		V5.46H18.84z"/>
	<path class="st0" d="M20.06,5.47c0.01-0.02,0.03-0.03,0.05-0.03l0.18-0.05V5.3h-0.92v0.09l0.18,0.05c0.02,0,0.03,0.02,0.05,0.03
		c0.01,0.02,0.02,0.03,0.02,0.06v1.55c0,0.02-0.01,0.04-0.02,0.05c-0.01,0.02-0.03,0.03-0.05,0.03l-0.18,0.05v0.09h0.92V7.22
		L20.1,7.17c-0.02-0.01-0.04-0.02-0.05-0.03c-0.01-0.01-0.02-0.03-0.02-0.06V5.53C20.03,5.51,20.04,5.49,20.06,5.47z"/>
	<path class="st0" d="M21.62,7.07c-0.03,0.03-0.07,0.05-0.11,0.07c-0.04,0.02-0.09,0.03-0.15,0.03c-0.03,0-0.06,0-0.1-0.01
		c-0.04-0.01-0.08-0.02-0.12-0.03C21.09,7.12,21.05,7.1,21,7.09c-0.04-0.02-0.08-0.04-0.12-0.06c0,0-0.01-0.01-0.02-0.01
		C20.86,7.01,20.86,7,20.85,6.99c-0.01-0.01-0.01-0.01-0.02-0.02c-0.01-0.01-0.01-0.01-0.01-0.02l-0.13-0.29h-0.1l0.03,0.57
		c0.05,0.02,0.1,0.03,0.16,0.05c0.05,0.02,0.11,0.03,0.16,0.04c0.05,0.01,0.11,0.02,0.17,0.03c0.06,0.01,0.11,0.01,0.17,0.01
		c0.14,0,0.27-0.02,0.37-0.06c0.1-0.04,0.19-0.08,0.26-0.14c0.07-0.06,0.12-0.13,0.15-0.2c0.03-0.08,0.05-0.15,0.05-0.23
		c0-0.07-0.01-0.14-0.03-0.19c-0.02-0.06-0.05-0.11-0.09-0.15c-0.04-0.04-0.08-0.08-0.12-0.11c-0.05-0.03-0.09-0.06-0.14-0.08
		c-0.04-0.02-0.08-0.03-0.11-0.04c-0.04-0.01-0.07-0.02-0.11-0.03s-0.07-0.02-0.1-0.03c-0.03-0.01-0.07-0.02-0.1-0.03
		c-0.05-0.02-0.09-0.04-0.12-0.06c-0.03-0.02-0.06-0.05-0.08-0.07c-0.02-0.03-0.03-0.06-0.04-0.09c-0.01-0.03-0.01-0.07-0.01-0.11
		c0-0.03,0.01-0.07,0.02-0.1c0.01-0.03,0.04-0.06,0.06-0.09c0.03-0.03,0.06-0.05,0.1-0.06c0.04-0.02,0.08-0.02,0.13-0.02
		c0.02,0,0.05,0,0.08,0.01c0.03,0,0.07,0.01,0.1,0.02c0.04,0.01,0.07,0.02,0.1,0.03c0.03,0.01,0.06,0.03,0.09,0.05
		c0.01,0.01,0.02,0.02,0.03,0.03c0.01,0.01,0.02,0.03,0.03,0.04l0.11,0.27h0.1V5.35c-0.04-0.01-0.09-0.03-0.13-0.04
		c-0.05-0.01-0.1-0.02-0.15-0.03c-0.05-0.01-0.11-0.02-0.17-0.02c-0.06,0-0.12-0.01-0.18-0.01c-0.07,0-0.13,0.01-0.19,0.02
		c-0.06,0.01-0.12,0.03-0.17,0.06c-0.05,0.03-0.1,0.06-0.14,0.09c-0.04,0.04-0.08,0.08-0.11,0.12c-0.03,0.04-0.06,0.09-0.07,0.14
		c-0.02,0.05-0.03,0.1-0.03,0.16c0,0.06,0.01,0.11,0.02,0.17c0.02,0.05,0.04,0.1,0.07,0.15c0.03,0.05,0.07,0.09,0.11,0.12
		c0.05,0.04,0.1,0.07,0.16,0.09c0.04,0.01,0.07,0.03,0.11,0.04c0.04,0.01,0.07,0.02,0.11,0.03c0.04,0.01,0.07,0.02,0.11,0.03
		c0.04,0.01,0.07,0.02,0.11,0.04c0.04,0.02,0.08,0.04,0.11,0.06c0.03,0.02,0.06,0.04,0.08,0.07s0.04,0.05,0.05,0.08
		c0.01,0.03,0.02,0.06,0.02,0.1c0,0.05-0.01,0.09-0.02,0.13C21.67,7.01,21.65,7.04,21.62,7.07z"/>
	<path class="st0" d="M22.6,5.51c0-0.01,0.01-0.03,0.02-0.04c0.01-0.01,0.02-0.01,0.04-0.01h0.43v1.62c0,0.02-0.01,0.04-0.02,0.06
		c-0.01,0.02-0.03,0.03-0.05,0.03L22.8,7.22v0.09h0.98V7.22l-0.21-0.05c-0.02,0-0.03-0.01-0.05-0.03C23.51,7.12,23.5,7.1,23.5,7.08
		V5.46h0.43c0.02,0,0.03,0,0.04,0.01c0.01,0.01,0.01,0.02,0.02,0.04l0.12,0.32h0.1V5.3h-1.83v0.53h0.1L22.6,5.51z"/>
	<path class="st0" d="M24.11,7.31h0.63V7.22L24.5,7.15l0.21-0.55h0.64l0.22,0.55l-0.25,0.06v0.09h0.88V7.22l-0.13-0.05
		c-0.02-0.01-0.03-0.02-0.05-0.03C26,7.12,25.99,7.1,25.98,7.08l-0.71-1.81h-0.18l-0.18,0.33l-0.58,1.48
		c-0.02,0.04-0.04,0.07-0.09,0.09l-0.13,0.05V7.31z M25.03,5.76l0.07,0.2l0.19,0.48h-0.52L25.03,5.76z"/>
	<path class="st0" d="M28.17,7.22l-0.22-0.05c-0.02,0-0.03-0.01-0.05-0.03s-0.02-0.03-0.02-0.06V6.41l0.19,0.05l0.42,0.66
		c0.02,0.03,0.04,0.06,0.06,0.09s0.04,0.04,0.06,0.06s0.05,0.02,0.08,0.03c0.03,0.01,0.07,0.01,0.11,0.01h0.47V7.22l-0.19-0.05
		c-0.01,0-0.03-0.01-0.04-0.02C29.03,7.14,29.01,7.13,29,7.12c-0.01-0.01-0.03-0.02-0.04-0.04c-0.01-0.01-0.02-0.02-0.03-0.04
		l-0.49-0.72c0.04-0.01,0.09-0.03,0.14-0.06c0.05-0.03,0.1-0.06,0.14-0.1c0.04-0.04,0.08-0.09,0.11-0.15
		c0.03-0.06,0.04-0.13,0.04-0.21c0-0.04,0-0.08-0.01-0.12c-0.01-0.04-0.02-0.08-0.05-0.12c-0.02-0.04-0.05-0.07-0.09-0.1
		c-0.04-0.03-0.09-0.06-0.14-0.08c-0.06-0.02-0.13-0.04-0.21-0.06C28.29,5.31,28.2,5.3,28.1,5.3h-0.88v0.09l0.18,0.05
		c0.02,0,0.03,0.02,0.05,0.03c0.01,0.02,0.02,0.03,0.02,0.06v1.55c0,0.02-0.01,0.04-0.02,0.05c-0.01,0.02-0.03,0.03-0.05,0.03
		l-0.18,0.05v0.09h0.94V7.22z M27.89,5.46h0.17c0.12,0,0.21,0.03,0.28,0.1c0.07,0.06,0.1,0.17,0.1,0.31c0,0.05-0.01,0.1-0.02,0.15
		c-0.01,0.05-0.04,0.1-0.06,0.13c-0.03,0.04-0.07,0.07-0.11,0.09c-0.04,0.02-0.1,0.04-0.15,0.04c-0.01,0-0.03,0-0.04,0
		c-0.02,0-0.04,0-0.06,0c-0.02,0-0.04,0-0.05,0c-0.02,0-0.03,0-0.04-0.01V5.46z"/>
	<path class="st0" d="M31.09,6.74h-0.1L30.87,7.1c0,0.02-0.01,0.03-0.02,0.04c-0.01,0.01-0.02,0.01-0.04,0.01h-0.79v-0.8h0.42
		c0.02,0,0.03,0,0.04,0.01c0.01,0.01,0.02,0.02,0.02,0.04l0.1,0.24h0.09V5.9h-0.09l-0.1,0.24c0,0.01-0.01,0.02-0.02,0.03
		c-0.01,0.01-0.02,0.01-0.04,0.01h-0.42V5.46h0.66c0.02,0,0.03,0,0.04,0.01c0.01,0.01,0.02,0.02,0.02,0.04l0.12,0.31h0.1V5.3h-1.61
		v0.09l0.18,0.05c0.02,0.01,0.04,0.02,0.05,0.03c0.01,0.02,0.02,0.03,0.02,0.06v1.55c0,0.02-0.01,0.04-0.02,0.05
		c-0.01,0.02-0.03,0.03-0.05,0.03l-0.18,0.05v0.09h1.73V6.74z"/>
	<path class="st0" d="M32.31,7.22l-0.21-0.05c-0.02,0-0.04-0.01-0.05-0.03c-0.01-0.02-0.02-0.03-0.02-0.06V6.36h0.44
		c0.02,0,0.03,0,0.04,0.01c0.01,0.01,0.02,0.02,0.02,0.04l0.1,0.24h0.09V5.91h-0.09l-0.1,0.25c0,0.01-0.01,0.03-0.02,0.03
		C32.51,6.2,32.49,6.2,32.47,6.2h-0.44V5.46h0.67c0.02,0,0.03,0.01,0.04,0.02c0.01,0.01,0.02,0.02,0.02,0.04l0.12,0.31h0.1V5.3
		h-1.61v0.09l0.18,0.05c0.02,0,0.04,0.02,0.05,0.03c0.01,0.02,0.02,0.03,0.02,0.06v1.55c0,0.02-0.01,0.04-0.02,0.06
		c-0.01,0.02-0.03,0.03-0.05,0.03l-0.18,0.05v0.09h0.94V7.22z"/>
	<path class="st0" d="M33.48,7.06c0.08,0.09,0.19,0.16,0.31,0.22c0.12,0.05,0.26,0.08,0.42,0.08c0.11,0,0.22-0.01,0.31-0.04
		c0.09-0.03,0.18-0.07,0.25-0.12c0.07-0.05,0.14-0.11,0.19-0.18c0.05-0.07,0.1-0.14,0.13-0.22c0.03-0.08,0.06-0.16,0.08-0.24
		c0.02-0.08,0.02-0.17,0.02-0.25c0-0.14-0.02-0.28-0.06-0.4c-0.04-0.13-0.1-0.24-0.18-0.33c-0.08-0.1-0.18-0.17-0.3-0.23
		c-0.12-0.06-0.27-0.08-0.43-0.08c-0.15,0-0.29,0.03-0.41,0.08c-0.12,0.05-0.22,0.13-0.31,0.22c-0.08,0.09-0.15,0.21-0.19,0.33
		c-0.04,0.13-0.07,0.26-0.07,0.41c0,0.15,0.02,0.29,0.06,0.42C33.34,6.85,33.4,6.97,33.48,7.06z M33.7,5.94
		c0.02-0.1,0.05-0.19,0.09-0.27c0.04-0.08,0.09-0.14,0.16-0.19c0.06-0.05,0.14-0.07,0.23-0.07c0.1,0,0.18,0.02,0.25,0.07
		c0.07,0.05,0.13,0.11,0.17,0.19c0.05,0.08,0.08,0.18,0.1,0.3c0.02,0.11,0.03,0.24,0.03,0.38c0,0.12-0.01,0.23-0.03,0.33
		c-0.02,0.1-0.05,0.19-0.09,0.27c-0.04,0.08-0.1,0.14-0.16,0.18c-0.06,0.04-0.14,0.07-0.22,0.07c-0.1,0-0.18-0.02-0.25-0.07
		c-0.07-0.05-0.13-0.11-0.17-0.2c-0.04-0.08-0.08-0.18-0.1-0.3c-0.02-0.12-0.03-0.24-0.03-0.37C33.68,6.15,33.68,6.04,33.7,5.94z"/>
	<path class="st0" d="M36.41,7.22l-0.22-0.05c-0.02,0-0.03-0.01-0.05-0.03s-0.02-0.03-0.02-0.06V6.41l0.19,0.05l0.42,0.66
		c0.02,0.03,0.04,0.06,0.06,0.09s0.04,0.04,0.06,0.06s0.05,0.02,0.08,0.03C36.97,7.3,37,7.31,37.05,7.31h0.47V7.22l-0.19-0.05
		c-0.01,0-0.03-0.01-0.04-0.02c-0.01-0.01-0.03-0.02-0.04-0.03c-0.01-0.01-0.03-0.02-0.04-0.04c-0.01-0.01-0.02-0.02-0.03-0.04
		l-0.49-0.72c0.04-0.01,0.09-0.03,0.14-0.06c0.05-0.03,0.1-0.06,0.14-0.1c0.04-0.04,0.08-0.09,0.11-0.15
		c0.03-0.06,0.04-0.13,0.04-0.21c0-0.04,0-0.08-0.01-0.12c-0.01-0.04-0.02-0.08-0.05-0.12c-0.02-0.04-0.05-0.07-0.09-0.1
		c-0.04-0.03-0.09-0.06-0.14-0.08c-0.06-0.02-0.13-0.04-0.21-0.06c-0.08-0.01-0.17-0.02-0.28-0.02h-0.88v0.09l0.18,0.05
		c0.02,0,0.03,0.02,0.05,0.03c0.01,0.02,0.02,0.03,0.02,0.06v1.55c0,0.02-0.01,0.04-0.02,0.05c-0.01,0.02-0.03,0.03-0.05,0.03
		l-0.18,0.05v0.09h0.94V7.22z M36.13,5.46h0.17c0.12,0,0.21,0.03,0.28,0.1c0.07,0.06,0.1,0.17,0.1,0.31c0,0.05-0.01,0.1-0.02,0.15
		c-0.01,0.05-0.04,0.1-0.06,0.13c-0.03,0.04-0.07,0.07-0.11,0.09c-0.04,0.02-0.1,0.04-0.15,0.04c-0.01,0-0.03,0-0.04,0
		c-0.02,0-0.04,0-0.06,0c-0.02,0-0.04,0-0.05,0c-0.02,0-0.03,0-0.04-0.01V5.46z"/>
	<path class="st0" d="M38.29,7.22L38.1,7.16c-0.02-0.01-0.04-0.02-0.05-0.03c-0.01-0.01-0.02-0.03-0.02-0.05V5.59l0.09,0.27
		l0.52,1.44h0.15l0.15-0.33l0.4-1.11l0.09-0.27v1.48c0,0.02-0.01,0.04-0.02,0.05c-0.01,0.02-0.03,0.03-0.05,0.03l-0.18,0.05v0.09
		h0.92V7.22l-0.18-0.05c-0.02-0.01-0.04-0.02-0.05-0.03c-0.01-0.01-0.02-0.03-0.02-0.06V5.53c0-0.02,0.01-0.04,0.02-0.06
		c0.01-0.02,0.03-0.03,0.05-0.03l0.18-0.05V5.3h-0.74l-0.52,1.43l-0.1-0.3L38.34,5.3H37.6v0.09l0.18,0.05
		c0.02,0,0.03,0.02,0.05,0.03c0.01,0.02,0.02,0.03,0.02,0.06v1.54c0,0.02-0.01,0.04-0.02,0.05c-0.01,0.02-0.03,0.03-0.05,0.03
		L37.6,7.22v0.09h0.69V7.22z"/>
	<path class="st0" d="M40.86,7.22l-0.25-0.07l0.21-0.55h0.64l0.22,0.55l-0.25,0.06v0.09h0.88V7.22l-0.13-0.05
		c-0.02-0.01-0.03-0.02-0.05-0.03c-0.02-0.02-0.03-0.03-0.04-0.05l-0.71-1.81H41.2l-0.18,0.33l-0.58,1.48
		c-0.02,0.04-0.04,0.07-0.09,0.09l-0.13,0.05v0.09h0.63V7.22z M41.14,5.76l0.07,0.2l0.19,0.48h-0.52L41.14,5.76z"/>
	<path class="st0" d="M43.75,7.25c0.13-0.04,0.23-0.1,0.33-0.18c0.09-0.08,0.17-0.19,0.22-0.31c0.05-0.13,0.08-0.27,0.08-0.44
		c0-0.13-0.02-0.25-0.05-0.35c-0.03-0.1-0.07-0.19-0.13-0.26c-0.05-0.07-0.11-0.14-0.18-0.19c-0.07-0.05-0.14-0.09-0.22-0.12
		c-0.08-0.03-0.15-0.05-0.23-0.06C43.5,5.31,43.42,5.3,43.36,5.3h-0.94v0.09l0.18,0.05c0.02,0.01,0.04,0.02,0.05,0.03
		c0.01,0.02,0.02,0.03,0.02,0.06v1.55c0,0.02-0.01,0.04-0.02,0.05c-0.01,0.02-0.03,0.03-0.05,0.03l-0.18,0.05v0.09h0.93
		C43.49,7.31,43.63,7.29,43.75,7.25z M43.09,5.46h0.2c0.1,0,0.18,0.02,0.26,0.06c0.08,0.04,0.15,0.1,0.2,0.18
		c0.06,0.08,0.1,0.17,0.13,0.28c0.03,0.11,0.05,0.23,0.05,0.37c0,0.13-0.01,0.24-0.03,0.34c-0.02,0.1-0.06,0.18-0.11,0.25
		c-0.05,0.07-0.11,0.12-0.18,0.16c-0.07,0.04-0.16,0.05-0.25,0.05h-0.27V5.46z"/>
	<path class="st0" d="M45.12,7.22l-0.25-0.07l0.21-0.55h0.64l0.22,0.55l-0.25,0.06v0.09h0.88V7.22l-0.13-0.05
		c-0.02-0.01-0.03-0.02-0.05-0.03c-0.02-0.02-0.03-0.03-0.04-0.05l-0.71-1.81h-0.18l-0.18,0.33l-0.58,1.48
		c-0.02,0.04-0.04,0.07-0.09,0.09l-0.13,0.05v0.09h0.63V7.22z M45.4,5.76l0.07,0.2l0.19,0.48h-0.52L45.4,5.76z"/>
	<path class="st0" d="M13.94,4.72l-0.11-0.03c-0.01,0-0.02-0.01-0.03-0.02c-0.01-0.01-0.01-0.02-0.01-0.03V3.69
		c0-0.01,0-0.02,0.01-0.03s0.02-0.02,0.03-0.02l0.11-0.03V3.55h-0.56V3.6l0.11,0.03c0.01,0,0.02,0.01,0.03,0.02
		c0.01,0.01,0.01,0.02,0.01,0.03v0.95c0,0.01,0,0.02-0.01,0.03c-0.01,0.01-0.02,0.02-0.03,0.02l-0.11,0.03v0.05h0.56V4.72z"/>
	<path class="st0" d="M14.29,4.63c0.05,0.05,0.12,0.1,0.19,0.13c0.07,0.03,0.15,0.04,0.23,0.04c0.04,0,0.09,0,0.13-0.01
		c0.04,0,0.09-0.01,0.13-0.02c0.04-0.01,0.08-0.02,0.12-0.03c0.04-0.01,0.07-0.02,0.1-0.04c0-0.02,0-0.05,0-0.09
		c0-0.03,0-0.08,0-0.12V4.36c0-0.01,0-0.02,0.01-0.03c0.01-0.01,0.02-0.02,0.03-0.02l0.11-0.03V4.22h-0.57v0.05l0.12,0.03
		c0.01,0,0.02,0.01,0.03,0.02c0.01,0.01,0.01,0.02,0.01,0.03v0.27c-0.01,0.01-0.02,0.01-0.03,0.02c-0.01,0.01-0.03,0.01-0.05,0.02
		c-0.02,0.01-0.04,0.01-0.06,0.02c-0.02,0-0.05,0.01-0.07,0.01c-0.05,0-0.1-0.01-0.14-0.04c-0.04-0.03-0.08-0.07-0.11-0.12
		c-0.03-0.05-0.05-0.11-0.06-0.18c-0.01-0.07-0.02-0.14-0.02-0.22c0-0.08,0.01-0.16,0.03-0.22c0.02-0.06,0.04-0.12,0.07-0.16
		c0.03-0.04,0.07-0.07,0.11-0.1s0.08-0.03,0.12-0.03c0.02,0,0.05,0,0.08,0c0.03,0,0.05,0.01,0.08,0.01
		c0.03,0.01,0.05,0.01,0.08,0.02c0.02,0.01,0.05,0.02,0.07,0.03c0.01,0,0.02,0.01,0.02,0.02c0.01,0.01,0.01,0.01,0.02,0.02
		l0.06,0.16h0.06v-0.3c-0.02-0.01-0.05-0.02-0.08-0.02c-0.03-0.01-0.06-0.02-0.1-0.02c-0.04-0.01-0.08-0.01-0.12-0.02
		c-0.04,0-0.09-0.01-0.14-0.01c-0.09,0-0.17,0.02-0.25,0.05c-0.08,0.03-0.14,0.07-0.2,0.13c-0.06,0.06-0.1,0.12-0.13,0.2
		c-0.03,0.08-0.05,0.17-0.05,0.26c0,0.1,0.02,0.19,0.05,0.27C14.19,4.51,14.23,4.58,14.29,4.63z"/>
	<path class="st0" d="M16.06,4.72l-0.13-0.03c-0.01,0-0.02-0.01-0.03-0.02c-0.01-0.01-0.01-0.02-0.01-0.03V4.22L16,4.26l0.26,0.4
		c0.01,0.02,0.03,0.04,0.04,0.05c0.01,0.01,0.02,0.03,0.04,0.03c0.01,0.01,0.03,0.01,0.05,0.02c0.02,0,0.04,0.01,0.07,0.01h0.28
		V4.72l-0.11-0.03c-0.01,0-0.02-0.01-0.02-0.01c-0.01-0.01-0.02-0.01-0.03-0.02c-0.01-0.01-0.02-0.01-0.02-0.02
		c-0.01-0.01-0.01-0.02-0.02-0.02l-0.3-0.44c0.03-0.01,0.05-0.02,0.08-0.04c0.03-0.02,0.06-0.04,0.09-0.06
		c0.03-0.03,0.05-0.06,0.07-0.09c0.02-0.04,0.03-0.08,0.03-0.13c0-0.02,0-0.05-0.01-0.07c-0.01-0.02-0.02-0.05-0.03-0.07
		c-0.01-0.02-0.03-0.04-0.06-0.06c-0.02-0.02-0.05-0.04-0.09-0.05c-0.04-0.01-0.08-0.03-0.13-0.03c-0.05-0.01-0.11-0.01-0.17-0.01
		h-0.54V3.6l0.11,0.03c0.01,0,0.02,0.01,0.03,0.02c0.01,0.01,0.01,0.02,0.01,0.03v0.95c0,0.01,0,0.02-0.01,0.03
		c-0.01,0.01-0.02,0.02-0.03,0.02l-0.11,0.03v0.05h0.58V4.72z M15.89,3.64h0.1c0.07,0,0.13,0.02,0.17,0.06
		c0.04,0.04,0.06,0.1,0.06,0.19c0,0.03,0,0.06-0.01,0.09c-0.01,0.03-0.02,0.06-0.04,0.08c-0.02,0.02-0.04,0.04-0.07,0.06
		S16.04,4.15,16,4.15c-0.01,0-0.02,0-0.03,0s-0.02,0-0.03,0c-0.01,0-0.02,0-0.03,0c-0.01,0-0.02,0-0.02,0V3.64z"/>
	<path class="st0" d="M17.84,4.43h-0.06l-0.07,0.21c0,0.01-0.01,0.02-0.01,0.02c-0.01,0.01-0.01,0.01-0.02,0.01h-0.48V4.18h0.26
		c0.01,0,0.02,0,0.03,0.01c0,0.01,0.01,0.01,0.01,0.02l0.06,0.14h0.06V3.91h-0.06l-0.06,0.15c0,0.01-0.01,0.02-0.01,0.02
		c-0.01,0.01-0.01,0.01-0.03,0.01h-0.26V3.64h0.41c0.01,0,0.02,0,0.02,0.01c0.01,0.01,0.01,0.01,0.01,0.02l0.07,0.19h0.06V3.55
		h-0.98V3.6l0.11,0.03c0.01,0,0.02,0.01,0.03,0.02c0.01,0.01,0.01,0.02,0.01,0.03v0.95c0,0.01,0,0.02-0.01,0.03
		c-0.01,0.01-0.02,0.02-0.03,0.02l-0.11,0.03v0.05h1.06V4.43z"/>
	<path class="st0" d="M17.85,5.1c0.02,0,0.03,0.01,0.05,0.01c0.02,0,0.03,0.01,0.05,0.01c0.02,0,0.03,0,0.04,0
		c0.06,0,0.12-0.01,0.17-0.03c0.05-0.02,0.1-0.06,0.14-0.1c0.04-0.04,0.07-0.1,0.1-0.16c0.02-0.06,0.04-0.13,0.04-0.21V3.69
		c0-0.01,0-0.02,0.01-0.03c0.01-0.01,0.02-0.02,0.03-0.02l0.11-0.03V3.55h-0.57V3.6l0.12,0.03c0.01,0,0.02,0.01,0.03,0.02
		c0.01,0.01,0.01,0.02,0.01,0.03v0.93c0,0.04,0,0.08,0,0.11c0,0.03,0,0.06,0,0.09c0,0.03,0,0.05-0.01,0.07c0,0.02,0,0.04-0.01,0.05
		c0,0.02-0.01,0.03-0.02,0.03c-0.01,0.01-0.02,0.01-0.03,0.01c-0.02,0-0.04,0-0.06-0.01c-0.02-0.01-0.04-0.01-0.06-0.02
		c-0.02-0.01-0.04-0.02-0.06-0.03c-0.02-0.01-0.04-0.02-0.05-0.03h-0.03l-0.04,0.2C17.82,5.09,17.83,5.1,17.85,5.1z"/>
	<path class="st0" d="M18.98,4.72l-0.15-0.04l0.13-0.34h0.39l0.13,0.34l-0.15,0.04v0.05h0.54V4.72l-0.08-0.03
		c-0.01,0-0.02-0.01-0.03-0.02c-0.01-0.01-0.02-0.02-0.02-0.03l-0.44-1.11h-0.11l-0.11,0.2l-0.35,0.9
		c-0.01,0.02-0.03,0.04-0.05,0.05l-0.08,0.03v0.05h0.39V4.72z M19.15,3.83l0.05,0.12l0.12,0.3h-0.32L19.15,3.83z"/>
	<path class="st0" d="M14.97,8.89c-0.04-0.07-0.1-0.12-0.17-0.17c-0.07-0.04-0.15-0.08-0.24-0.1c-0.09-0.02-0.19-0.03-0.3-0.03H13.4
		v0.09l0.18,0.05c0.02,0.01,0.04,0.02,0.05,0.03s0.02,0.03,0.02,0.06v1.55c0,0.02-0.01,0.04-0.02,0.05s-0.03,0.03-0.05,0.03
		l-0.18,0.05v0.09h0.94v-0.09l-0.21-0.05c-0.02,0-0.04-0.01-0.05-0.03s-0.02-0.03-0.02-0.06V9.7c0.02,0.01,0.04,0.02,0.07,0.04
		c0.03,0.01,0.05,0.02,0.08,0.03c0.03,0.01,0.05,0.02,0.08,0.02c0.03,0.01,0.05,0.01,0.07,0.01c0.09,0,0.18-0.02,0.26-0.05
		c0.08-0.03,0.15-0.07,0.21-0.13c0.06-0.06,0.11-0.13,0.14-0.21c0.03-0.08,0.05-0.17,0.05-0.28C15.03,9.04,15.01,8.96,14.97,8.89z
		 M14.58,9.28c0,0.03-0.01,0.06-0.02,0.09c-0.01,0.03-0.02,0.06-0.04,0.09c-0.02,0.03-0.03,0.06-0.06,0.08
		c-0.02,0.03-0.05,0.05-0.09,0.06c-0.03,0.02-0.07,0.02-0.12,0.02c-0.02,0-0.04,0-0.05,0c-0.02,0-0.04,0-0.06,0
		c-0.02,0-0.04,0-0.05-0.01c-0.02,0-0.03-0.01-0.04-0.01V8.75h0.14c0.07,0,0.14,0.01,0.18,0.04c0.05,0.02,0.09,0.06,0.12,0.1
		c0.03,0.04,0.05,0.09,0.06,0.14c0.01,0.05,0.02,0.11,0.02,0.17C14.59,9.22,14.59,9.25,14.58,9.28z"/>
	<path class="st0" d="M16.9,10.43c-0.02-0.02-0.03-0.03-0.04-0.05l-0.71-1.81h-0.18L15.8,8.9l-0.58,1.48
		c-0.02,0.04-0.04,0.07-0.09,0.09L15,10.51v0.09h0.63v-0.09l-0.25-0.07L15.6,9.9h0.64l0.22,0.55l-0.25,0.06v0.09h0.88v-0.09
		l-0.13-0.05C16.93,10.46,16.91,10.44,16.9,10.43z M15.66,9.74l0.25-0.68l0.07,0.2l0.19,0.48H15.66z"/>
	<path class="st0" d="M18.62,10.36c0,0.01,0,0.02-0.01,0.02c0,0.01-0.01,0.02-0.01,0.02c-0.01,0.01-0.01,0.01-0.02,0.02
		c-0.01,0.01-0.02,0.01-0.02,0.01h-0.7V8.82c0-0.02,0.01-0.04,0.02-0.06c0.01-0.02,0.03-0.03,0.05-0.03l0.19-0.05V8.6H17.2v0.09
		l0.18,0.05c0.02,0,0.04,0.02,0.05,0.03c0.01,0.02,0.02,0.03,0.02,0.06v1.55c0,0.02-0.01,0.04-0.02,0.05
		c-0.01,0.02-0.03,0.03-0.05,0.03l-0.18,0.05v0.09h1.65V9.98h-0.1L18.62,10.36z"/>
	<path class="st0" d="M20.8,10.43c-0.02-0.02-0.03-0.03-0.04-0.05l-0.71-1.81h-0.18L19.7,8.9l-0.58,1.48
		c-0.02,0.04-0.04,0.07-0.09,0.09l-0.13,0.05v0.09h0.63v-0.09l-0.25-0.07L19.5,9.9h0.64l0.22,0.55l-0.25,0.06v0.09h0.88v-0.09
		l-0.13-0.05C20.83,10.46,20.82,10.44,20.8,10.43z M19.56,9.74l0.25-0.68l0.07,0.2l0.19,0.48H19.56z"/>
	<path class="st0" d="M22.3,8.68l0.24,0.08l-0.52,1.38l-0.08-0.21l-0.47-1.19l0.25-0.06V8.6h-0.89v0.09l0.14,0.05
		c0.02,0.01,0.04,0.02,0.05,0.04c0.01,0.02,0.02,0.03,0.03,0.05l0.72,1.81h0.2l0.17-0.33l0.58-1.46c0.01-0.02,0.02-0.04,0.03-0.05
		c0.02-0.02,0.03-0.03,0.05-0.04l0.14-0.06V8.6H22.3V8.68z"/>
	<path class="st0" d="M26.94,10.43c-0.02-0.02-0.03-0.03-0.04-0.05l-0.71-1.81h-0.18L25.84,8.9l-0.58,1.48
		c-0.02,0.04-0.04,0.07-0.09,0.09l-0.1,0.04l-0.14-0.04c-0.01,0-0.03-0.01-0.04-0.02c-0.01-0.01-0.03-0.02-0.04-0.03
		c-0.01-0.01-0.03-0.02-0.04-0.04c-0.01-0.01-0.02-0.02-0.03-0.04l-0.49-0.72c0.04-0.01,0.09-0.03,0.14-0.06
		c0.05-0.03,0.1-0.06,0.14-0.1c0.04-0.04,0.08-0.09,0.11-0.15c0.03-0.06,0.04-0.13,0.04-0.21c0-0.04,0-0.08-0.01-0.12
		c-0.01-0.04-0.02-0.08-0.05-0.12c-0.02-0.04-0.05-0.07-0.09-0.1c-0.04-0.03-0.09-0.06-0.14-0.08c-0.06-0.02-0.13-0.04-0.21-0.06
		C24.14,8.6,24.05,8.6,23.94,8.6h-0.88v0.09l0.18,0.05c0.02,0,0.03,0.02,0.05,0.03c0.01,0.02,0.02,0.03,0.02,0.06v1.55
		c0,0.02-0.01,0.04-0.02,0.05c-0.01,0.02-0.03,0.03-0.05,0.03l-0.18,0.05v0.09h0.94v-0.09l-0.22-0.05c-0.02,0-0.03-0.01-0.05-0.03
		s-0.02-0.03-0.02-0.06V9.71l0.19,0.05l0.42,0.66c0.02,0.03,0.04,0.06,0.06,0.09c0.02,0.02,0.04,0.04,0.06,0.06s0.05,0.02,0.08,0.03
		c0.03,0.01,0.07,0.01,0.11,0.01h0.39h0.08h0.56v-0.09l-0.25-0.07l0.21-0.55h0.64l0.22,0.55l-0.25,0.06v0.09h0.88v-0.09l-0.13-0.05
		C26.98,10.46,26.96,10.44,26.94,10.43z M24.26,9.31c-0.01,0.05-0.04,0.1-0.06,0.13c-0.03,0.04-0.07,0.07-0.11,0.09
		c-0.04,0.02-0.1,0.04-0.15,0.04c-0.01,0-0.03,0-0.04,0c-0.02,0-0.04,0-0.06,0s-0.04,0-0.05,0c-0.02,0-0.03,0-0.04-0.01V8.75h0.17
		c0.12,0,0.21,0.03,0.28,0.1c0.07,0.06,0.1,0.17,0.1,0.31C24.28,9.21,24.27,9.26,24.26,9.31z M25.7,9.74l0.25-0.68l0.07,0.2
		l0.19,0.48H25.7z"/>
	<path class="st0" d="M29.47,8.68l0.24,0.08l-0.52,1.38l-0.08-0.21l-0.47-1.19l0.25-0.06V8.6H28v0.09l0.14,0.05
		c0.02,0.01,0.04,0.02,0.05,0.04c0.01,0.02,0.02,0.03,0.03,0.05l0.72,1.81h0.2l0.17-0.33l0.58-1.46c0.01-0.02,0.02-0.04,0.03-0.05
		c0.02-0.02,0.03-0.03,0.05-0.04l0.14-0.06V8.6h-0.64V8.68z"/>
	<path class="st0" d="M30.24,8.68l0.18,0.05c0.02,0,0.03,0.02,0.05,0.03c0.01,0.02,0.02,0.03,0.02,0.06v1.55
		c0,0.02-0.01,0.04-0.02,0.05c-0.01,0.02-0.03,0.03-0.05,0.03l-0.18,0.05v0.09h0.92v-0.09l-0.18-0.05
		c-0.02-0.01-0.04-0.02-0.05-0.03c-0.01-0.01-0.02-0.03-0.02-0.06V8.82c0-0.02,0.01-0.04,0.02-0.06c0.01-0.02,0.03-0.03,0.05-0.03
		l0.18-0.05V8.6h-0.92V8.68z"/>
	<path class="st0" d="M33.39,8.68V8.6h-0.64v0.09l0.24,0.08l-0.52,1.38l-0.08-0.21l-0.47-1.19l0.25-0.06V8.6h-0.89v0.09l0.14,0.05
		c0.02,0.01,0.04,0.02,0.05,0.04c0.01,0.02,0.02,0.03,0.03,0.05l0.72,1.81h0.2l0.17-0.33l0.58-1.46c0.01-0.02,0.02-0.04,0.03-0.05
		c0.02-0.02,0.03-0.03,0.05-0.04L33.39,8.68z"/>
	<path class="st0" d="M35.12,10.43c-0.02-0.02-0.03-0.03-0.04-0.05l-0.71-1.81H34.2L34.02,8.9l-0.58,1.48
		c-0.02,0.04-0.04,0.07-0.09,0.09l-0.13,0.05v0.09h0.63v-0.09l-0.25-0.07l0.21-0.55h0.64l0.22,0.55l-0.25,0.06v0.09h0.88v-0.09
		l-0.13-0.05C35.15,10.46,35.14,10.44,35.12,10.43z M33.88,9.74l0.25-0.68l0.07,0.2l0.19,0.48H33.88z"/>
	<rect x="13.34" y="7.75" class="st0" width="33.48" height="0.34"/>
</g>
</svg>
