<svg id="Design" xmlns="http://www.w3.org/2000/svg" viewBox="0 0 174.48 174.48"><defs><style>.cls-1{fill:#656565;fill-rule:evenodd;}</style></defs><title>TWITER</title><path class="cls-1" d="M-1.14-.76v176H175.62V-.76ZM143.44,53.6a44.79,44.79,0,0,1-9,9.45c-.51.38-1.38.79-1.38,1.52,0,18.76-4.79,37.5-18.47,51.09-17.41,17.3-43.53,22-66.72,15.6a64,64,0,0,1-12.91-5.16c-1.36-.75-2.7-1.52-4-2.39-.33-.27-.58-.52-.3-.69s.5-.15,1.54,0a45.61,45.61,0,0,0,19.31-2.47c3.37-1.18,10.62-3.55,12.71-6.74,0-.07.1-.07.15-.15-.85-.2-1.69-.2-2.54-.34-6.3-1.8-14.71-5-18.61-15.59-.25-.62,0-.94.65-.82,5.18.41,7,.12,8.85-.27a13.86,13.86,0,0,1-3-.92A24,24,0,0,1,34.87,76.59a14.55,14.55,0,0,1-.15-2.68c.05-.62.33-.82.87-.48a23.79,23.79,0,0,0,9,2.53c-1-.79-1.95-1.66-2.87-2.53-6.88-6.52-9.56-19.78-4-28,.45-.67.75-.67,1.29,0,12.59,14.35,28.1,21,46.81,23.83.49.07.54,0,.47-.55a25.15,25.15,0,0,1,.24-9.78,23.71,23.71,0,0,1,4.63-9.26,24.67,24.67,0,0,1,7.74-6.33,24.12,24.12,0,0,1,9.61-2.71,22.72,22.72,0,0,1,10.11,1.63,24,24,0,0,1,6.6,4,9.85,9.85,0,0,1,1.19,1.22.93.93,0,0,0,.94.25A58.54,58.54,0,0,0,141,42.46a.65.65,0,0,1,.61-.05c.2.15.12.4,0,.6a21.1,21.1,0,0,1-3.82,7c-1.09,1.36-3.82,4.7-5.66,5a46.52,46.52,0,0,0,11.46-3.27c.47-.21.43-.3.43,0v.1A2.7,2.7,0,0,1,143.44,53.6Z"/><path class="cls-1" d="M64.19,133.59c-1.87,0-.15,0,0,0Z"/><path class="cls-1" d="M68.06,133.65c.06,0,.13,0,0,0C69.85,133.69,68.34,133.53,68.06,133.65Z"/><path class="cls-1" d="M108.17,40.63h-.47A.4.4,0,0,0,108.17,40.63Z"/></svg>