<svg id="Design" xmlns="http://www.w3.org/2000/svg" viewBox="0 0 174.48 174.48"><defs><style>.cls-1{fill:#656565;fill-rule:evenodd;}</style></defs><title>WHATSAPP</title><path class="cls-1" d="M87.24,45.74a41.48,41.48,0,0,0-33.67,65.74,4.41,4.41,0,0,1,.44,4.39l-4.79,10.55L63,122.65a4.16,4.16,0,0,1,1.16-.16,4.32,4.32,0,0,1,2.21.6,41.5,41.5,0,1,0,20.9-77.35Zm24.67,57.58c-1.54,3.75-5.38,6.16-9.27,6.9-3.71.7-6.78-.48-10.22-1.62a42.55,42.55,0,0,1-8.78-4.17A50.17,50.17,0,0,1,69.56,91.35a53.67,53.67,0,0,1-3.24-4.93,26.83,26.83,0,0,1-3.11-7.17A14.59,14.59,0,0,1,62.8,76,12.92,12.92,0,0,1,67.27,65.8c1.77-1.44,4.38-2.07,6.36-1,2.15,1.22,3.27,4.28,4.26,6.43.78,1.69,1.67,3.9,1.35,5.79s-1.82,3.48-3,4.88A2,2,0,0,0,76,84.72,33.27,33.27,0,0,0,92.53,98.91a1.82,1.82,0,0,0,2.36-.51c1.24-1.52,2.45-4.5,4.35-5.28,2.48-1,5.22.39,7.33,1.65s5.24,2.61,5.77,5A5.93,5.93,0,0,1,111.91,103.32Z"/><path class="cls-1" d="M-1.14-.76v176H175.62V-.76ZM87.24,137.52a50.3,50.3,0,0,1-23.68-5.93l-21.05,5.77a4.16,4.16,0,0,1-1.16.16,4.39,4.39,0,0,1-4-6.21L45,114.49a50.28,50.28,0,1,1,42.25,23Z"/></svg>